<?xml version="1.0" encoding="UTF-8" standalone="no"?>
<!-- Created with Inkscape (http://www.inkscape.org/) -->

<svg
   xmlns:dc="http://purl.org/dc/elements/1.1/"
   xmlns:cc="http://creativecommons.org/ns#"
   xmlns:rdf="http://www.w3.org/1999/02/22-rdf-syntax-ns#"
   xmlns:svg="http://www.w3.org/2000/svg"
   xmlns="http://www.w3.org/2000/svg"
   xmlns:sodipodi="http://sodipodi.sourceforge.net/DTD/sodipodi-0.dtd"
   xmlns:inkscape="http://www.inkscape.org/namespaces/inkscape"
   width="150"
   height="150"
   viewBox="0 0 39.687499 39.687501"
   version="1.1"
   id="svg8590"
   inkscape:version="0.92.1 r15371"
   sodipodi:docname="handle.svg">
  <defs
     id="defs8584" />
  <sodipodi:namedview
     id="base"
     pagecolor="#ffffff"
     bordercolor="#666666"
     borderopacity="1.0"
     inkscape:pageopacity="0.0"
     inkscape:pageshadow="2"
     inkscape:zoom="1.979899"
     inkscape:cx="83.616561"
     inkscape:cy="80.090265"
     inkscape:document-units="mm"
     inkscape:current-layer="layer1"
     showgrid="false"
     units="px"
     inkscape:window-width="1920"
     inkscape:window-height="1017"
     inkscape:window-x="-8"
     inkscape:window-y="-8"
     inkscape:window-maximized="1" />
  <metadata
     id="metadata8587">
    <rdf:RDF>
      <cc:Work
         rdf:about="">
        <dc:format>image/svg+xml</dc:format>
        <dc:type
           rdf:resource="http://purl.org/dc/dcmitype/StillImage" />
        <dc:title></dc:title>
      </cc:Work>
    </rdf:RDF>
  </metadata>
  <g
     inkscape:label="Layer 1"
     inkscape:groupmode="layer"
     id="layer1"
     transform="translate(0,-257.31248)">
    <g
       id="g9168"
       transform="translate(-777.87497,410.10416)">
      <circle
         r="13.229167"
         cy="-132.94792"
         cx="797.71875"
         id="path5826-3-6-0-6-6"
         style="opacity:1;fill:#cccccc;fill-opacity:1;stroke:#333333;stroke-width:0.5291667;stroke-miterlimit:4;stroke-dasharray:none;stroke-opacity:1" />
      <circle
         r="11.90625"
         cy="-132.94792"
         cx="797.71875"
         id="path5826-83-46-5-6-5-2"
         style="opacity:1;fill:#333333;fill-opacity:1;stroke:none;stroke-width:0.26458326;stroke-opacity:1" />
      <circle
         r="10.583329"
         cy="-132.94792"
         cx="797.71875"
         id="path5826-83-4-3-0-0-2-7"
         style="opacity:1;fill:#cccccc;fill-opacity:1;stroke:none;stroke-width:0.23518504;stroke-opacity:1" />
      <circle
         r="5.2916665"
         cy="-132.94792"
         cx="797.71875"
         id="path5826-83-4-1-7-7-0-2-6"
         style="opacity:1;fill:#c48744;fill-opacity:1;stroke:none;stroke-width:0.11759257;stroke-opacity:1" />
      <path
         id="path7589-6-4-8-1-5-6"
         d="m 797.71867,-152.79168 a 2.6458332,2.6458332 0 0 0 -2.6458,2.64583 2.6458332,2.6458332 0 0 0 1.3229,2.28875 v 13.58625 h -13.5862 a 2.6458332,2.6458332 0 0 0 -2.2888,-1.32291 2.6458332,2.6458332 0 0 0 -2.6458,2.64583 2.6458332,2.6458332 0 0 0 2.6458,2.64584 2.6458332,2.6458332 0 0 0 2.2872,-1.32292 h 13.5878 v 13.58625 a 2.6458332,2.6458332 0 0 0 -1.3229,2.28875 2.6458332,2.6458332 0 0 0 2.6458,2.64583 2.6458332,2.6458332 0 0 0 2.6459,-2.64583 2.6458332,2.6458332 0 0 0 -1.3229,-2.28719 v -13.58781 h 13.5878 a 2.6458332,2.6458332 0 0 0 2.2872,1.32292 2.6458332,2.6458332 0 0 0 2.6458,-2.64584 2.6458332,2.6458332 0 0 0 -2.6458,-2.64583 2.6458332,2.6458332 0 0 0 -2.2888,1.32291 h -13.5862 v -13.58781 a 2.6458332,2.6458332 0 0 0 1.3229,-2.28719 2.6458332,2.6458332 0 0 0 -2.6459,-2.64583 z"
         style="fill:#ffff00;fill-opacity:1;stroke:none;stroke-width:0.26458332px;stroke-linecap:butt;stroke-linejoin:miter;stroke-opacity:1"
         inkscape:connector-curvature="0" />
    </g>
  </g>
</svg>
